<?xml version="1.0" standalone="no"?>
<!DOCTYPE svg PUBLIC "-//W3C//DTD SVG 20010904//EN"
 "http://www.w3.org/TR/2001/REC-SVG-20010904/DTD/svg10.dtd">
<svg version="1.0" xmlns="http://www.w3.org/2000/svg"
 width="700.000000pt" height="700.000000pt" viewBox="0 0 700.000000 700.000000"
 preserveAspectRatio="xMidYMid meet">
<metadata>
Created by potrace 1.14, written by Peter Selinger 2001-2017
</metadata>
<g transform="translate(0.000000,700.000000) scale(0.100000,-0.100000)"
fill="#000000" stroke="none">
<path d="M3210 6994 c-380 -44 -626 -98 -903 -199 -361 -130 -656 -294 -977
-541 -130 -100 -385 -351 -517 -510 -463 -557 -738 -1222 -804 -1943 -15 -168
-6 -602 15 -756 47 -333 136 -653 261 -940 454 -1043 1389 -1804 2502 -2036
297 -61 700 -85 1005 -60 720 61 1401 343 1962 812 153 128 403 382 500 509
398 517 621 1043 717 1690 27 176 37 591 20 781 -76 834 -427 1584 -1016 2174
-550 551 -1233 889 -2025 1001 -109 15 -649 28 -740 18z m1063 -1018 l22 19
-19 -22 c-19 -23 -19 -23 0 -45 l19 -22 -24 17 c-23 16 -26 15 -45 -1 -21 -17
-21 -17 -2 6 19 22 19 22 0 45 l-19 22 23 -19 c22 -19 22 -19 45 0z m920 -158
l52 -2 -52 -3 -53 -4 -2 -52 -2 -52 -3 53 -4 52 -52 2 -52 1 50 6 50 6 5 55 4
55 4 -57 3 -58 52 -2z m-1311 -118 c358 -63 681 -205 983 -433 103 -78 324
-299 402 -402 178 -237 302 -480 379 -748 56 -194 76 -328 81 -550 8 -302 -22
-516 -112 -785 -290 -867 -1082 -1467 -2002 -1518 l-123 -7 0 501 0 502 -32
-20 c-122 -74 -262 65 -188 185 38 62 116 81 183 45 l37 -20 0 242 c0 233 -1
241 -18 225 -26 -24 -49 -21 -67 7 -30 45 20 91 64 59 l21 -14 0 1382 0 1382
138 -6 c75 -3 190 -15 254 -27z m-1332 -95 c-42 -43 -43 -45 -26 -63 17 -19
19 -19 124 23 59 24 118 46 132 49 l25 6 -25 -12 c-14 -6 -70 -33 -126 -59
-274 -130 -535 -365 -720 -651 -34 -53 -69 -100 -77 -105 -24 -14 -57 -76 -57
-108 0 -17 -15 -66 -34 -110 -248 -591 -272 -1358 -61 -1990 49 -146 167 -390
249 -513 209 -313 495 -550 823 -680 51 -20 91 -37 89 -39 -7 -7 -216 71 -313
117 -245 115 -435 250 -634 449 -145 145 -255 285 -346 438 -303 515 -389
1123 -241 1698 155 601 548 1105 1095 1406 96 52 101 57 85 72 -15 16 -19 14
-62 -25 l-45 -43 42 44 42 44 -37 46 -36 46 42 -40 42 -39 43 42 c23 23 44 42
46 42 3 0 -15 -20 -39 -45z m314 -354 c25 -27 17 -72 -15 -90 -24 -13 -29 -13
-53 2 -47 31 -27 107 28 107 13 0 31 -9 40 -19z m2942 -183 c16 -12 59 -48 95
-80 36 -32 70 -58 75 -58 6 0 28 18 49 41 53 54 144 123 152 116 7 -8 -34 -62
-104 -139 -29 -32 -53 -61 -53 -65 0 -5 27 -38 59 -74 68 -78 105 -128 99
-135 -7 -6 -75 45 -145 110 l-62 57 -72 -66 c-81 -75 -117 -101 -126 -92 -7 8
46 77 111 144 l50 53 -45 47 c-44 46 -108 125 -123 151 -11 19 8 14 40 -10z
m-2908 -174 c73 -51 65 -161 -14 -199 -38 -18 -58 -19 -87 -4 -64 33 -90 92
-66 150 24 60 116 89 167 53z m-96 -614 c248 -93 348 -407 199 -623 -93 -135
-255 -206 -408 -178 -166 29 -285 133 -334 292 -101 324 225 629 543 509z
m219 -1066 c17 -21 0 -49 -32 -49 -24 0 -36 23 -25 51 7 19 40 18 57 -2z
m-780 -303 c16 -16 29 -37 29 -46 0 -24 -27 -72 -45 -79 -88 -33 -160 71 -91
131 37 31 71 29 107 -6z m511 -167 c9 -18 9 -30 1 -42 -14 -24 -63 -22 -79 3
-12 18 -11 24 2 43 21 31 61 29 76 -4z m-244 -384 c91 -56 94 -187 5 -233 -63
-33 -117 -25 -164 22 -34 34 -39 44 -39 86 0 112 108 180 198 125z m-1098
-435 l-44 -45 20 -22 c42 -48 46 -61 8 -26 l-40 38 -38 -38 -39 -37 33 43 33
43 -39 42 -39 41 46 -36 46 -37 44 39 c59 52 63 50 9 -5z m1438 -38 c4 -20
-25 -34 -40 -19 -15 15 -1 44 19 40 10 -2 19 -11 21 -21z m569 -43 c8 -22 -10
-49 -32 -49 -10 0 -22 7 -28 16 -15 24 -1 49 28 49 15 0 28 -7 32 -16z m-1521
-670 l7 -111 106 -7 c112 -7 151 -13 151 -26 0 -9 -50 -17 -171 -26 l-86 -6
-6 -92 c-7 -108 -16 -158 -28 -151 -7 5 -12 37 -24 176 l-6 66 -120 11 c-66 6
-125 14 -131 18 -19 12 36 23 150 30 84 6 102 10 102 23 0 47 21 245 27 254
11 19 23 -42 29 -159z m1149 -414 c-17 -19 -17 -21 1 -42 l19 -22 -26 16 c-24
15 -27 15 -45 0 -17 -16 -17 -16 -5 0 7 10 11 27 8 39 -4 15 -2 18 7 10 9 -8
18 -6 32 4 27 20 30 18 9 -5z"/>
<path d="M3883 5263 c-21 -8 -15 -51 7 -58 27 -8 40 1 40 30 0 17 -21 40 -33
34 -1 0 -8 -3 -14 -6z"/>
<path d="M4551 4874 c-80 -67 7 -193 100 -144 10 6 26 24 34 41 22 41 5 93
-35 114 -41 21 -64 19 -99 -11z"/>
<path d="M3592 4881 c-8 -4 -12 -19 -10 -32 2 -18 9 -24 28 -24 28 0 39 27 20
50 -14 17 -20 18 -38 6z"/>
<path d="M4432 4214 c-31 -22 -30 -69 4 -90 24 -16 27 -16 52 3 36 27 38 48 8
78 -29 29 -34 30 -64 9z"/>
<path d="M3725 4174 c-44 -47 -29 -115 30 -140 44 -18 90 -3 110 37 21 40 19
63 -11 98 -35 42 -93 44 -129 5z"/>
<path d="M4269 3691 c-60 -61 -27 -156 58 -168 39 -5 46 -2 78 30 22 22 35 45
35 61 0 93 -107 141 -171 77z"/>
<path d="M3723 3494 c-7 -20 17 -37 34 -23 15 13 6 39 -13 39 -8 0 -17 -7 -21
-16z"/>
<path d="M4781 3474 c-25 -32 -25 -33 -5 -62 22 -31 69 -30 90 4 16 24 16 27
-3 52 -27 37 -56 39 -82 6z"/>
<path d="M4114 3226 c-152 -71 -192 -262 -81 -384 70 -75 158 -99 262 -71 53
14 136 99 153 155 61 207 -142 390 -334 300z"/>
<path d="M4888 2850 c-26 -27 -30 -36 -25 -68 15 -92 130 -113 173 -31 48 94
-73 174 -148 99z"/>
<path d="M4599 2461 c-37 -37 -38 -79 -3 -120 44 -53 123 -40 150 25 12 29 12
39 0 68 -26 64 -97 76 -147 27z"/>
<path d="M4072 2228 c-21 -21 -14 -57 13 -70 22 -10 29 -9 47 10 19 18 20 25
10 47 -13 27 -49 34 -70 13z"/>
<path d="M3935 1766 c-20 -29 -13 -61 17 -77 28 -15 63 -4 75 24 28 60 -56
108 -92 53z"/>
</g>
</svg>
