<svg width="179" height="45" viewBox="0 0 179 45" fill="none" xmlns="http://www.w3.org/2000/svg">
<path d="M109.087 22.5433C109.087 20.6062 109.857 18.7484 111.227 17.3787C112.596 16.009 114.454 15.2394 116.391 15.2394H128.077C130.015 15.2394 131.872 14.4699 133.242 13.1002C134.612 11.7304 135.381 9.87266 135.381 7.93555C135.381 5.99843 134.612 4.14066 133.242 2.77091C131.872 1.40117 130.015 0.631653 128.077 0.631653H8.29364C6.35653 0.631653 4.49875 1.40117 3.12901 2.77091C1.75926 4.14066 0.989746 5.99843 0.989746 7.93555V7.93555C0.989746 9.87266 1.75926 11.7304 3.12901 13.1002C4.49875 14.4699 6.35653 15.2394 8.29364 15.2394H75.0025C76.9396 15.2394 78.7974 16.009 80.1671 17.3787C81.5369 18.7484 82.3064 20.6062 82.3064 22.5433C82.3064 24.4804 81.5369 26.3382 80.1671 27.708C78.7974 29.0777 76.9396 29.8472 75.0025 29.8472H53.0908C51.1537 29.8472 49.296 30.6167 47.9262 31.9865C46.5565 33.3562 45.787 35.214 45.787 37.1511C45.787 39.0882 46.5565 40.946 47.9262 42.3158C49.296 43.6855 51.1537 44.455 53.0908 44.455H170.927C172.864 44.455 174.722 43.6855 176.092 42.3158C177.461 40.946 178.231 39.0882 178.231 37.1511C178.231 35.214 177.461 33.3562 176.092 31.9865C174.722 30.6167 172.864 29.8472 170.927 29.8472H116.391C114.454 29.8472 112.596 29.0777 111.227 27.708C109.857 26.3382 109.087 24.4804 109.087 22.5433Z" fill="#303030"/>
</svg>
