<svg width="116" height="55" viewBox="0 0 116 55" fill="none" xmlns="http://www.w3.org/2000/svg">
<path d="M63.5209 38.3117C63.5209 36.8759 64.0913 35.4989 65.1066 34.4836C66.1218 33.4683 67.4988 32.8979 68.9347 32.8979H88.7849C90.2208 32.8979 91.5977 32.3276 92.613 31.3123C93.6283 30.297 94.1987 28.92 94.1987 27.4842C94.1987 26.0484 93.6283 24.6714 92.613 23.6562C91.5977 22.6409 90.2208 22.0705 88.7849 22.0705H55.2199C53.7841 22.0705 52.4071 21.5001 51.3918 20.4849C50.3766 19.4696 49.8062 18.0926 49.8062 16.6568C49.8062 15.221 50.3766 13.844 51.3918 12.8287C52.4071 11.8135 53.7841 11.2431 55.2199 11.2431H62.0773C63.5131 11.2431 64.8901 10.6727 65.9054 9.65744C66.9206 8.64217 67.491 7.26517 67.491 5.82937C67.491 4.39356 66.9206 3.01656 65.9054 2.00129C64.8901 0.986021 63.5131 0.415649 62.0773 0.415649H23.4594C22.0236 0.415649 20.6466 0.986021 19.6314 2.00129C18.6161 3.01656 18.0457 4.39356 18.0457 5.82937C18.0457 7.26517 18.6161 8.64217 19.6314 9.65744C20.6466 10.6727 22.0236 11.2431 23.4594 11.2431H30.6777C32.1135 11.2431 33.4905 11.8135 34.5058 12.8287C35.5211 13.844 36.0914 15.221 36.0914 16.6568C36.0914 18.0926 35.5211 19.4696 34.5058 20.4849C33.4905 21.5001 32.1135 22.0705 30.6777 22.0705H5.41372C3.97791 22.0705 2.60091 22.6409 1.58564 23.6562C0.570372 24.6714 0 26.0484 0 27.4842V27.4842C0 28.92 0.570372 30.297 1.58564 31.3123C2.60091 32.3276 3.97791 32.8979 5.41372 32.8979H33.565C35.0008 32.8979 36.3778 33.4683 37.3931 34.4836C38.4084 35.4989 38.9788 36.8759 38.9788 38.3117C38.9788 39.7475 38.4084 41.1245 37.3931 42.1397C36.3778 43.155 35.0008 43.7254 33.565 43.7254H29.9559C28.5201 43.7254 27.1431 44.2957 26.1278 45.311C25.1126 46.3263 24.5422 47.7033 24.5422 49.1391V49.1391C24.5422 50.5749 25.1126 51.9519 26.1278 52.9672C27.1431 53.9824 28.5201 54.5528 29.9559 54.5528H110.079C111.515 54.5528 112.892 53.9824 113.907 52.9672C114.922 51.9519 115.493 50.5749 115.493 49.1391C115.493 47.7033 114.922 46.3263 113.907 45.311C112.892 44.2957 111.515 43.7254 110.079 43.7254H68.9347C67.4988 43.7254 66.1218 43.155 65.1066 42.1397C64.0913 41.1245 63.5209 39.7475 63.5209 38.3117Z" fill="url(#paint0_linear)"/>
<defs>
<linearGradient id="paint0_linear" x1="256.426" y1="-56.9268" x2="58.1501" y2="50.8932" gradientUnits="userSpaceOnUse">
<stop stop-color="#303030"/>
</linearGradient>
</defs>
</svg>
