<svg width="90" height="33" viewBox="0 0 90 33" fill="none" xmlns="http://www.w3.org/2000/svg">
<path d="M59.481 16.8905C59.481 15.4753 60.1459 14.1179 61.3294 13.1172C62.5129 12.1165 64.118 11.5542 65.7917 11.5542H69.1575C70.8312 11.5542 72.4364 10.992 73.6199 9.99127C74.8034 8.99052 75.4683 7.63322 75.4683 6.21794C75.4683 4.80267 74.8034 3.44537 73.6199 2.44462C72.4364 1.44387 70.8312 0.881653 69.1575 0.881653H22.8785C21.2047 0.881653 19.5996 1.44387 18.4161 2.44462C17.2326 3.44537 16.5677 4.80267 16.5677 6.21794C16.5677 7.63322 17.2326 8.99052 18.4161 9.99127C19.5996 10.992 21.2047 11.5542 22.8785 11.5542H24.5613C25.3901 11.5542 26.2107 11.6923 26.9764 11.9604C27.742 12.2286 28.4377 12.6217 29.0237 13.1172C29.6097 13.6127 30.0746 14.201 30.3917 14.8484C30.7089 15.4958 30.8721 16.1898 30.8721 16.8905V16.8905C30.8721 17.5913 30.7089 18.2852 30.3917 18.9326C30.0746 19.5801 29.6097 20.1683 29.0237 20.6639C28.4377 21.1594 27.742 21.5524 26.9764 21.8206C26.2107 22.0888 25.3901 22.2268 24.5613 22.2268H6.47044C4.79672 22.2268 3.19155 22.789 2.00805 23.7898C0.824551 24.7905 0.159668 26.1478 0.159668 27.5631V27.5631C0.159668 28.9784 0.824551 30.3357 2.00805 31.3364C3.19155 32.3372 4.79672 32.8994 6.47044 32.8994H83.0412C84.7149 32.8994 86.3201 32.3372 87.5036 31.3364C88.6871 30.3357 89.352 28.9784 89.352 27.5631C89.352 26.1478 88.6871 24.7905 87.5036 23.7898C86.3201 22.789 84.7149 22.2268 83.0412 22.2268H65.7917C64.118 22.2268 62.5129 21.6646 61.3294 20.6639C60.1459 19.6631 59.481 18.3058 59.481 16.8905Z" fill="#303030"/>
</svg>
