<svg width="181" height="181" viewBox="0 0 181 181" fill="none" xmlns="http://www.w3.org/2000/svg">
<path opacity="0.08" d="M90.4622 180.469C72.7246 180.468 55.3853 175.209 40.6371 165.354C25.8888 155.5 14.3939 141.493 7.60605 125.106C0.818166 108.718 -0.957862 90.6862 2.50255 73.2895C5.96297 55.8927 14.5044 39.9128 27.0468 27.3704C35.3669 19.0077 45.2552 12.3686 56.1452 7.83336C67.0352 3.29814 78.713 0.955925 90.5096 0.940869C102.306 0.925813 113.99 3.23821 124.892 7.74562C135.793 12.253 145.698 18.8669 154.04 27.2083C162.381 35.5498 168.995 45.4549 173.503 56.3564C178.01 67.258 180.322 78.9416 180.307 90.7382C180.292 102.535 177.95 114.213 173.415 125.102C168.88 135.992 162.24 145.881 153.878 154.201C145.569 162.555 135.686 169.178 124.801 173.686C113.916 178.195 102.244 180.501 90.4622 180.469Z" fill="url(#paint0_linear)"/>
<path opacity="0.12" d="M90.4625 168.422C75.1075 168.422 60.0975 163.868 47.3303 155.337C34.5632 146.807 24.6124 134.682 18.7364 120.496C12.8603 106.31 11.3229 90.6996 14.3184 75.6397C17.314 60.5799 24.7081 46.7465 35.5656 35.8889C42.7667 28.6435 51.327 22.8903 60.7558 18.9594C70.1846 15.0284 80.2965 12.9969 90.5118 12.9812C100.727 12.9655 110.845 14.966 120.286 18.868C129.727 22.77 138.305 28.4968 145.528 35.7201C152.752 42.9435 158.478 51.5214 162.38 60.9621C166.282 70.4029 168.283 80.5209 168.267 90.7363C168.252 100.952 166.22 111.063 162.289 120.492C158.358 129.921 152.605 138.481 145.359 145.682C138.167 152.914 129.612 158.647 120.189 162.551C110.766 166.454 100.662 168.449 90.4625 168.422V168.422Z" fill="url(#paint1_linear)"/>
<path opacity="0.18" d="M90.4631 156.375C75.2886 156.375 60.5836 151.113 48.8535 141.487C37.1234 131.861 29.0941 118.465 26.1335 103.582C23.173 88.6991 25.4645 73.2503 32.6176 59.8676C39.7707 46.4849 51.3427 35.9965 65.362 30.1894C79.3813 24.3823 94.9804 23.6159 109.502 28.0206C124.023 32.4254 136.567 41.7289 144.998 54.3459C153.428 66.9628 157.223 82.1126 155.736 97.214C154.249 112.315 147.571 126.434 136.841 137.164C130.765 143.274 123.538 148.118 115.577 151.415C107.616 154.713 99.0799 156.398 90.4631 156.375V156.375Z" fill="url(#paint2_linear)"/>
<path d="M90.4627 144.328C120.033 144.328 144.005 120.356 144.005 90.7856C144.005 61.2151 120.033 37.2435 90.4627 37.2435C60.8921 37.2435 36.9204 61.2151 36.9204 90.7856C36.9204 120.356 60.8921 144.328 90.4627 144.328Z" fill="url(#paint3_linear)"/>
<ellipse rx="5.46911" ry="6.85974" transform="matrix(0.861422 -0.50789 0.507186 0.861836 79.9819 99.7931)" fill="#F1F1E5"/>
<ellipse rx="3.73936" ry="2.84271" transform="matrix(0.958747 0.284259 -0.283771 0.958892 67.5035 108.895)" fill="#F1F1E5"/>
<ellipse cx="53.1594" cy="91.8371" rx="6.15923" ry="11.8426" transform="rotate(-21.5 53.1594 91.8371)" fill="#F1F1E5"/>
<ellipse rx="11.9837" ry="9.93845" transform="matrix(0.843164 -0.537657 0.536943 0.843619 68.5812 63.7948)" fill="#F1F1E5"/>
<ellipse rx="8.10199" ry="7.07733" transform="matrix(0.956228 -0.292622 0.292122 0.956381 89.8451 60.6115)" fill="#F1F1E5"/>
<ellipse rx="9.12156" ry="7.48361" transform="matrix(0.882766 -0.469814 0.46913 0.883129 102.095 69.8416)" fill="#F1F1E5"/>
<ellipse rx="4.98826" ry="3.93727" transform="matrix(-0.628965 -0.777434 0.776859 -0.629676 115.306 59.0708)" fill="#F1F1E5"/>
<ellipse rx="6.99895" ry="5.79099" transform="matrix(0.46913 0.883129 -0.882766 0.469814 117.623 73.9165)" fill="#F1F1E5"/>
<defs>
<linearGradient id="paint0_linear" x1="90.5434" y1="0.940796" x2="90.5434" y2="180.469" gradientUnits="userSpaceOnUse">
<stop stop-color="white"/>
<stop offset="1" stop-color="#FCFAE7"/>
</linearGradient>
<linearGradient id="paint1_linear" x1="90.547" y1="12.9811" x2="90.547" y2="168.422" gradientUnits="userSpaceOnUse">
<stop stop-color="white"/>
<stop offset="1" stop-color="#FCFAE7"/>
</linearGradient>
<linearGradient id="paint2_linear" x1="90.4624" y1="25.1965" x2="90.4624" y2="156.375" gradientUnits="userSpaceOnUse">
<stop stop-color="white"/>
<stop offset="1" stop-color="#FCFAE7"/>
</linearGradient>
<linearGradient id="paint3_linear" x1="90.4627" y1="37.2435" x2="90.4627" y2="144.328" gradientUnits="userSpaceOnUse">
<stop stop-color="white"/>
<stop offset="1" stop-color="#FCFAE7"/>
</linearGradient>
</defs>
</svg>
