<svg width="86" height="149" viewBox="0 0 86 149" fill="none" xmlns="http://www.w3.org/2000/svg">
<path d="M7.74556 0.513306H3.07736C1.58516 0.513306 0.375488 1.72135 0.375488 3.21154C0.375488 4.70173 1.58516 5.90977 3.07736 5.90977H7.74556C9.23776 5.90977 10.4474 4.70173 10.4474 3.21154C10.4474 1.72135 9.23776 0.513306 7.74556 0.513306Z" fill="url(#paint0_linear)"/>
<path d="M85.8667 3.34627V3.06224C85.861 2.38548 85.5886 1.73828 85.1086 1.26109C84.6287 0.783895 83.98 0.515198 83.3032 0.513306H16.9507C16.2739 0.515198 15.6252 0.783895 15.1453 1.26109C14.6653 1.73828 14.393 2.38548 14.3872 3.06224V3.3317C14.3891 4.01099 14.6598 4.66192 15.1402 5.14225C15.6205 5.62258 16.2714 5.89328 16.9507 5.89521H20.592C21.2719 5.89521 21.924 6.16529 22.4047 6.64604C22.8855 7.12679 23.1556 7.77883 23.1556 8.45871V8.72817C23.1556 9.40805 22.8855 10.0601 22.4047 10.5408C21.924 11.0216 21.2719 11.2917 20.592 11.2917H13.0108C12.3309 11.2917 11.6789 11.5618 11.1981 12.0425C10.7174 12.5233 10.4473 13.1753 10.4473 13.8552V14.1246C10.4463 14.4615 10.512 14.7953 10.6405 15.1068C10.7689 15.4182 10.9577 15.7012 11.196 15.9394C11.4342 16.1777 11.7172 16.3665 12.0286 16.495C12.3401 16.6234 12.6739 16.6891 13.0108 16.6881H26.5201C27.2 16.6881 27.8521 16.9582 28.3328 17.439C28.8136 17.9197 29.0836 18.5718 29.0836 19.2516V19.5211C29.0846 19.858 29.019 20.1918 28.8905 20.5032C28.762 20.8147 28.5732 21.0977 28.335 21.3359C28.0967 21.5741 27.8137 21.7629 27.5023 21.8914C27.1908 22.0199 26.8571 22.0856 26.5201 22.0846H22.5875C21.9082 22.0865 21.2573 22.3572 20.777 22.8376C20.2966 23.3179 20.0259 23.9688 20.024 24.6481V24.9103C20.0211 25.2488 20.0853 25.5845 20.2128 25.898C20.3404 26.2115 20.5287 26.4967 20.7671 26.7371C21.0054 26.9775 21.289 27.1682 21.6014 27.2984C21.9139 27.4286 22.249 27.4956 22.5875 27.4956H24.2989C24.9795 27.4976 25.6315 27.7693 26.112 28.2512C26.5926 28.7331 26.8624 29.3859 26.8624 30.0664V30.3286C26.8663 30.6665 26.8033 31.0018 26.6771 31.3152C26.5509 31.6286 26.364 31.914 26.1271 32.155C25.8902 32.3959 25.608 32.5876 25.2968 32.7191C24.9856 32.8507 24.6514 32.9193 24.3135 32.9212H21.6043C20.9238 32.9232 20.2718 33.1949 19.7912 33.6768C19.3107 34.1587 19.0408 34.8115 19.0408 35.492V35.7542C19.0408 36.4347 19.3107 37.0875 19.7912 37.5694C20.2718 38.0513 20.9238 38.323 21.6043 38.325H76.1807C76.8613 38.323 77.5133 38.0513 77.9939 37.5694C78.4744 37.0875 78.7442 36.4347 78.7442 35.7542V35.492C78.7442 34.8115 78.4744 34.1587 77.9939 33.6768C77.5133 33.1949 76.8613 32.9232 76.1807 32.9212H60.9308C60.2509 32.9212 59.5989 32.6511 59.1181 32.1704C58.6374 31.6896 58.3673 31.0376 58.3673 30.3577V30.0955C58.3673 29.415 58.6372 28.7622 59.1177 28.2803C59.5982 27.7984 60.2503 27.5267 60.9308 27.5248H67.4124C67.754 27.5258 68.0923 27.4586 68.4076 27.327C68.7228 27.1954 69.0086 27.0022 69.2481 26.7586C69.4876 26.515 69.676 26.2261 69.8022 25.9086C69.9284 25.5912 69.99 25.2518 69.9832 24.9103V24.6408C69.9813 23.9603 69.7095 23.3082 69.2276 22.8277C68.7457 22.3472 68.0929 22.0773 67.4124 22.0773V22.0773C67.0757 22.0802 66.7418 22.0167 66.4297 21.8906C66.1176 21.7644 65.8334 21.578 65.5933 21.342C65.3532 21.1059 65.162 20.825 65.0305 20.515C64.899 20.2051 64.8299 19.8723 64.827 19.5357V19.2662C64.829 18.5869 65.0997 17.936 65.58 17.4557C66.0603 16.9753 66.7112 16.7046 67.3905 16.7027H77.2076C77.5445 16.7037 77.8783 16.638 78.1897 16.5095C78.5012 16.381 78.7842 16.1922 79.0224 15.954C79.2606 15.7158 79.4494 15.4328 79.5779 15.1213C79.7064 14.8099 79.7721 14.4761 79.7711 14.1392V13.8697C79.7711 13.1899 79.501 12.5378 79.0203 12.0571C78.5395 11.5763 77.8875 11.3062 77.2076 11.3062H62.3072C61.9696 11.3072 61.6351 11.2416 61.3229 11.1133C61.0106 10.985 60.7267 10.7965 60.4873 10.5584C60.2479 10.3204 60.0577 10.0375 59.9276 9.72598C59.7976 9.41444 59.7301 9.08033 59.7292 8.74273V8.47327C59.7311 7.79398 60.0018 7.14306 60.4821 6.66273C60.9625 6.18239 61.6134 5.91169 62.2927 5.90977H83.2886C83.6262 5.91073 83.9607 5.84518 84.273 5.71687C84.5853 5.58856 84.8692 5.4 85.1086 5.16196C85.348 4.92391 85.5381 4.64105 85.6682 4.32951C85.7983 4.01798 85.8657 3.68387 85.8667 3.34627V3.34627ZM55.1629 22.0992H47.6836C47.3464 22.1001 47.0122 22.0345 46.7004 21.9061C46.3885 21.7777 46.105 21.5891 45.8662 21.3509C45.6274 21.1128 45.4379 20.8299 45.3087 20.5184C45.1794 20.2069 45.1128 19.8729 45.1128 19.5357V19.2662C45.1148 18.5857 45.3865 17.9336 45.8684 17.4531C46.3503 16.9725 47.0031 16.7027 47.6836 16.7027H55.1629C55.8422 16.7046 56.4931 16.9753 56.9735 17.4557C57.4538 17.936 57.7245 18.5869 57.7264 19.2662V19.5357C57.7264 19.8723 57.6601 20.2057 57.5313 20.5167C57.4025 20.8277 57.2136 21.1103 56.9756 21.3483C56.7376 21.5864 56.455 21.7752 56.1439 21.904C55.8329 22.0329 55.4996 22.0992 55.1629 22.0992V22.0992Z" fill="url(#paint1_linear)"/>
<path d="M81.3586 22.0992H77.9284C76.4362 22.0992 75.2266 23.3073 75.2266 24.7975C75.2266 26.2877 76.4362 27.4957 77.9284 27.4957H81.3586C82.8508 27.4957 84.0605 26.2877 84.0605 24.7975C84.0605 23.3073 82.8508 22.0992 81.3586 22.0992Z" fill="url(#paint2_linear)"/>
<path d="M12.371 32.531H8.96328C6.74665 32.531 4.94971 33.8109 4.94971 35.3897C4.94971 36.9686 6.74665 38.2485 8.96328 38.2485H12.371C14.5877 38.2485 16.3846 36.9686 16.3846 35.3897C16.3846 33.8109 14.5877 32.531 12.371 32.531Z" fill="url(#paint3_linear)"/>
<path d="M23.9865 40.9902H17.8982C16.406 40.9902 15.1963 42.1983 15.1963 43.6885C15.1963 45.1787 16.406 46.3867 17.8982 46.3867H23.9865C25.4787 46.3867 26.6884 45.1787 26.6884 43.6885C26.6884 42.1983 25.4787 40.9902 23.9865 40.9902Z" fill="url(#paint4_linear)"/>
<path d="M63.8804 40.9902H44.5813C43.0891 40.9902 41.8794 42.1983 41.8794 43.6885C41.8794 45.1787 43.0891 46.3867 44.5813 46.3867H63.8804C65.3726 46.3867 66.5822 45.1787 66.5822 43.6885C66.5822 42.1983 65.3726 40.9902 63.8804 40.9902Z" fill="url(#paint5_linear)"/>
<path d="M55.4361 57.4127H41.2932C39.801 57.4127 38.5913 58.6208 38.5913 60.111C38.5913 61.6011 39.801 62.8092 41.2932 62.8092H55.4361C56.9284 62.8092 58.138 61.6011 58.138 60.111C58.138 58.6208 56.9284 57.4127 55.4361 57.4127Z" fill="url(#paint6_linear)"/>
<path d="M69.2046 57.1799H63.779C62.2868 57.1799 61.0771 58.388 61.0771 59.8782C61.0771 61.3684 62.2868 62.5764 63.779 62.5764H69.2046C70.6968 62.5764 71.9065 61.3684 71.9065 59.8782C71.9065 58.388 70.6968 57.1799 69.2046 57.1799Z" fill="url(#paint7_linear)"/>
<path d="M40.2261 70.6746H32.237C30.7448 70.6746 29.5352 71.8826 29.5352 73.3728C29.5352 74.863 30.7448 76.071 32.237 76.071H40.2261C41.7183 76.071 42.928 74.863 42.928 73.3728C42.928 71.8826 41.7183 70.6746 40.2261 70.6746Z" fill="url(#paint8_linear)"/>
<path d="M48.7178 84.1694H44.5813C43.0891 84.1694 41.8794 85.3775 41.8794 86.8677C41.8794 88.3579 43.0891 89.5659 44.5813 89.5659H48.7178C50.21 89.5659 51.4197 88.3579 51.4197 86.8677C51.4197 85.3775 50.21 84.1694 48.7178 84.1694Z" fill="url(#paint9_linear)"/>
<path d="M30.3442 111.152H28.1521C26.6599 111.152 25.4502 112.36 25.4502 113.85C25.4502 115.34 26.6599 116.548 28.1521 116.548H30.3442C31.8364 116.548 33.046 115.34 33.046 113.85C33.046 112.36 31.8364 111.152 30.3442 111.152Z" fill="url(#paint10_linear)"/>
<path d="M56.5689 111.152H46.8684C45.3762 111.152 44.1665 112.36 44.1665 113.85C44.1665 115.34 45.3762 116.548 46.8684 116.548H56.5689C58.0611 116.548 59.2708 115.34 59.2708 113.85C59.2708 112.36 58.0611 111.152 56.5689 111.152Z" fill="url(#paint11_linear)"/>
<path d="M61.8854 130.043H60.072C58.5798 130.043 57.3701 131.251 57.3701 132.741C57.3701 134.231 58.5798 135.439 60.072 135.439H61.8854C63.3776 135.439 64.5872 134.231 64.5872 132.741C64.5872 131.251 63.3776 130.043 61.8854 130.043Z" fill="url(#paint12_linear)"/>
<path d="M50.3928 143.531H41.071C39.5788 143.531 38.3691 144.739 38.3691 146.229C38.3691 147.719 39.5788 148.927 41.071 148.927H50.3928C51.885 148.927 53.0947 147.719 53.0947 146.229C53.0947 144.739 51.885 143.531 50.3928 143.531Z" fill="url(#paint13_linear)"/>
<defs>
<linearGradient id="paint0_linear" x1="5.41146" y1="0.513306" x2="5.41146" y2="5.90977" gradientUnits="userSpaceOnUse">
<stop stop-color="#FFFFFE"/>
<stop offset="1" stop-color="#FDFBEA"/>
</linearGradient>
<linearGradient id="paint1_linear" x1="48.157" y1="0.513306" x2="48.157" y2="38.325" gradientUnits="userSpaceOnUse">
<stop stop-color="#FFFFFE"/>
<stop offset="1" stop-color="#FDFBEA"/>
</linearGradient>
<linearGradient id="paint2_linear" x1="79.6435" y1="22.0992" x2="79.6435" y2="27.4957" gradientUnits="userSpaceOnUse">
<stop stop-color="#FFFFFE"/>
<stop offset="1" stop-color="#FDFBEA"/>
</linearGradient>
<linearGradient id="paint3_linear" x1="10.6672" y1="32.531" x2="10.6672" y2="38.2485" gradientUnits="userSpaceOnUse">
<stop stop-color="#FFFFFE"/>
<stop offset="1" stop-color="#FDFBEA"/>
</linearGradient>
<linearGradient id="paint4_linear" x1="20.9423" y1="40.9902" x2="20.9423" y2="46.3867" gradientUnits="userSpaceOnUse">
<stop stop-color="#FFFFFE"/>
<stop offset="1" stop-color="#FDFBEA"/>
</linearGradient>
<linearGradient id="paint5_linear" x1="54.2308" y1="40.9902" x2="54.2308" y2="46.3867" gradientUnits="userSpaceOnUse">
<stop stop-color="#FFFFFE"/>
<stop offset="1" stop-color="#FDFBEA"/>
</linearGradient>
<linearGradient id="paint6_linear" x1="48.3647" y1="57.4127" x2="48.3647" y2="62.8092" gradientUnits="userSpaceOnUse">
<stop stop-color="#FDFBEB"/>
<stop offset="1" stop-color="#FDFCED"/>
</linearGradient>
<linearGradient id="paint7_linear" x1="66.4918" y1="57.1799" x2="66.4918" y2="62.5764" gradientUnits="userSpaceOnUse">
<stop stop-color="#FFFFFE"/>
<stop offset="1" stop-color="#FDFBEA"/>
</linearGradient>
<linearGradient id="paint8_linear" x1="36.2316" y1="70.6746" x2="36.2316" y2="76.071" gradientUnits="userSpaceOnUse">
<stop stop-color="#FFFFFE"/>
<stop offset="1" stop-color="#FDFBEA"/>
</linearGradient>
<linearGradient id="paint9_linear" x1="46.6495" y1="84.1694" x2="46.6495" y2="89.5659" gradientUnits="userSpaceOnUse">
<stop stop-color="#FFFFFE"/>
<stop offset="1" stop-color="#FDFBEA"/>
</linearGradient>
<linearGradient id="paint10_linear" x1="29.2481" y1="111.152" x2="29.2481" y2="116.548" gradientUnits="userSpaceOnUse">
<stop stop-color="#FFFFFE"/>
<stop offset="1" stop-color="#FDFBEA"/>
</linearGradient>
<linearGradient id="paint11_linear" x1="51.7186" y1="111.152" x2="51.7186" y2="116.548" gradientUnits="userSpaceOnUse">
<stop stop-color="#FFFFFE"/>
<stop offset="1" stop-color="#FDFBEA"/>
</linearGradient>
<linearGradient id="paint12_linear" x1="60.9787" y1="130.043" x2="60.9787" y2="135.439" gradientUnits="userSpaceOnUse">
<stop stop-color="#FFFFFE"/>
<stop offset="1" stop-color="#FDFBEA"/>
</linearGradient>
<linearGradient id="paint13_linear" x1="45.7319" y1="143.531" x2="45.7319" y2="148.927" gradientUnits="userSpaceOnUse">
<stop stop-color="#FFFFFE"/>
<stop offset="1" stop-color="#FDFBEA"/>
</linearGradient>
</defs>
</svg>
