<svg width="405" height="305" viewBox="0 0 405 305" fill="none" xmlns="http://www.w3.org/2000/svg">
<g opacity="0.5">
<path opacity="0.5" d="M195.849 264.682C196.408 264.682 196.86 264.23 196.86 263.671C196.86 263.113 196.408 262.66 195.849 262.66C195.291 262.66 194.838 263.113 194.838 263.671C194.838 264.23 195.291 264.682 195.849 264.682Z" fill="white"/>
<path opacity="0.5" d="M210.417 204.4C211.266 204.4 211.955 203.711 211.955 202.862C211.955 202.013 211.266 201.324 210.417 201.324C209.567 201.324 208.879 202.013 208.879 202.862C208.879 203.711 209.567 204.4 210.417 204.4Z" fill="white"/>
<path opacity="0.5" d="M184.038 197.072C184.208 197.072 184.345 196.935 184.345 196.765C184.345 196.596 184.208 196.458 184.038 196.458C183.869 196.458 183.731 196.596 183.731 196.765C183.731 196.935 183.869 197.072 184.038 197.072Z" fill="white"/>
<path opacity="0.5" d="M144.678 182.838C144.867 182.838 145.02 182.684 145.02 182.495C145.02 182.306 144.867 182.153 144.678 182.153C144.489 182.153 144.335 182.306 144.335 182.495C144.335 182.684 144.489 182.838 144.678 182.838Z" fill="white"/>
<path opacity="0.5" d="M101.049 184.463C101.418 184.463 101.718 184.163 101.718 183.794C101.718 183.425 101.418 183.125 101.049 183.125C100.68 183.125 100.38 183.425 100.38 183.794C100.38 184.163 100.68 184.463 101.049 184.463Z" fill="white"/>
<path opacity="0.5" d="M77.9109 252.315C78.2339 252.315 78.4957 252.053 78.4957 251.73C78.4957 251.407 78.2339 251.146 77.9109 251.146C77.588 251.146 77.3262 251.407 77.3262 251.73C77.3262 252.053 77.588 252.315 77.9109 252.315Z" fill="white"/>
<path opacity="0.5" d="M118.246 242.277C118.648 242.277 118.973 241.952 118.973 241.55C118.973 241.149 118.648 240.823 118.246 240.823C117.845 240.823 117.52 241.149 117.52 241.55C117.52 241.952 117.845 242.277 118.246 242.277Z" fill="white"/>
<path opacity="0.5" d="M135.273 246.296C135.941 246.296 136.482 245.755 136.482 245.088C136.482 244.421 135.941 243.88 135.273 243.88C134.606 243.88 134.065 244.421 134.065 245.088C134.065 245.755 134.606 246.296 135.273 246.296Z" fill="white"/>
<path opacity="0.5" d="M178.72 238.345C179.476 238.345 180.09 237.732 180.09 236.976C180.09 236.219 179.476 235.606 178.72 235.606C177.963 235.606 177.35 236.219 177.35 236.976C177.35 237.732 177.963 238.345 178.72 238.345Z" fill="white"/>
<path opacity="0.5" d="M170.691 171.798C171.482 171.798 172.123 171.157 172.123 170.367C172.123 169.577 171.482 168.936 170.691 168.936C169.901 168.936 169.26 169.577 169.26 170.367C169.26 171.157 169.901 171.798 170.691 171.798Z" fill="white"/>
<path opacity="0.5" d="M140.778 166.015C140.957 166.015 141.101 165.871 141.101 165.692C141.101 165.514 140.957 165.369 140.778 165.369C140.6 165.369 140.455 165.514 140.455 165.692C140.455 165.871 140.6 166.015 140.778 166.015Z" fill="white"/>
<path opacity="0.5" d="M93.7517 162.772C93.9819 162.772 94.1685 162.585 94.1685 162.355C94.1685 162.125 93.9819 161.938 93.7517 161.938C93.5216 161.938 93.335 162.125 93.335 162.355C93.335 162.585 93.5216 162.772 93.7517 162.772Z" fill="white"/>
<path opacity="0.5" d="M77.4136 162.326C78.279 162.326 78.9805 161.624 78.9805 160.759C78.9805 159.894 78.279 159.192 77.4136 159.192C76.5482 159.192 75.8467 159.894 75.8467 160.759C75.8467 161.624 76.5482 162.326 77.4136 162.326Z" fill="white"/>
<path opacity="0.5" d="M60.7073 203.204C61.3282 203.204 61.8316 202.701 61.8316 202.08C61.8316 201.459 61.3282 200.956 60.7073 200.956C60.0864 200.956 59.583 201.459 59.583 202.08C59.583 202.701 60.0864 203.204 60.7073 203.204Z" fill="white"/>
<path opacity="0.5" d="M97.0432 222.915C97.7712 222.915 98.3614 222.325 98.3614 221.597C98.3614 220.869 97.7712 220.279 97.0432 220.279C96.3152 220.279 95.7251 220.869 95.7251 221.597C95.7251 222.325 96.3152 222.915 97.0432 222.915Z" fill="white"/>
<path opacity="0.5" d="M142.093 218.476C142.273 218.476 142.419 218.33 142.419 218.15C142.419 217.97 142.273 217.824 142.093 217.824C141.913 217.824 141.767 217.97 141.767 218.15C141.767 218.33 141.913 218.476 142.093 218.476Z" fill="white"/>
<path opacity="0.5" d="M158.308 192.417C158.795 192.417 159.19 192.022 159.19 191.535C159.19 191.048 158.795 190.653 158.308 190.653C157.821 190.653 157.426 191.048 157.426 191.535C157.426 192.022 157.821 192.417 158.308 192.417Z" fill="white"/>
<path opacity="0.5" d="M190.648 206.784C190.871 206.784 191.052 206.603 191.052 206.38C191.052 206.157 190.871 205.976 190.648 205.976C190.425 205.976 190.244 206.157 190.244 206.38C190.244 206.603 190.425 206.784 190.648 206.784Z" fill="white"/>
<path opacity="0.5" d="M207.89 178.622C208.297 178.622 208.627 178.292 208.627 177.885C208.627 177.478 208.297 177.148 207.89 177.148C207.484 177.148 207.154 177.478 207.154 177.885C207.154 178.292 207.484 178.622 207.89 178.622Z" fill="white"/>
<path opacity="0.5" d="M177.776 117.703C178.535 117.703 179.149 117.088 179.149 116.33C179.149 115.571 178.535 114.957 177.776 114.957C177.018 114.957 176.403 115.571 176.403 116.33C176.403 117.088 177.018 117.703 177.776 117.703Z" fill="white"/>
<path opacity="0.5" d="M143.518 96.2569C143.787 96.2569 144.005 96.0385 144.005 95.7691C144.005 95.4997 143.787 95.2812 143.518 95.2812C143.248 95.2812 143.03 95.4997 143.03 95.7691C143.03 96.0385 143.248 96.2569 143.518 96.2569Z" fill="white"/>
<path opacity="0.5" d="M107.892 107.881C108.28 107.881 108.594 107.567 108.594 107.18C108.594 106.793 108.28 106.479 107.892 106.479C107.505 106.479 107.191 106.793 107.191 107.18C107.191 107.567 107.505 107.881 107.892 107.881Z" fill="white"/>
<path opacity="0.5" d="M81.0744 96.8127C81.7471 96.8127 82.2924 96.2674 82.2924 95.5947C82.2924 94.922 81.7471 94.3767 81.0744 94.3767C80.4018 94.3767 79.8564 94.922 79.8564 95.5947C79.8564 96.2674 80.4018 96.8127 81.0744 96.8127Z" fill="white"/>
<path opacity="0.5" d="M101.738 165.628C102.138 165.628 102.462 165.304 102.462 164.904C102.462 164.504 102.138 164.18 101.738 164.18C101.338 164.18 101.014 164.504 101.014 164.904C101.014 165.304 101.338 165.628 101.738 165.628Z" fill="white"/>
<path opacity="0.5" d="M135.002 166.781C135.214 166.781 135.386 166.609 135.386 166.397C135.386 166.184 135.214 166.012 135.002 166.012C134.789 166.012 134.617 166.184 134.617 166.397C134.617 166.609 134.789 166.781 135.002 166.781Z" fill="white"/>
<path opacity="0.5" d="M159.487 154.902C159.707 154.902 159.885 154.724 159.885 154.504C159.885 154.285 159.707 154.107 159.487 154.107C159.268 154.107 159.09 154.285 159.09 154.504C159.09 154.724 159.268 154.902 159.487 154.902Z" fill="white"/>
<path opacity="0.5" d="M201.287 130.29C202.158 130.29 202.864 129.584 202.864 128.713C202.864 127.842 202.158 127.136 201.287 127.136C200.416 127.136 199.71 127.842 199.71 128.713C199.71 129.584 200.416 130.29 201.287 130.29Z" fill="white"/>
<path opacity="0.5" d="M172.378 72.2622C172.584 72.2622 172.75 72.0959 172.75 71.8907C172.75 71.6855 172.584 71.5192 172.378 71.5192C172.173 71.5192 172.007 71.6855 172.007 71.8907C172.007 72.0959 172.173 72.2622 172.378 72.2622Z" fill="white"/>
<path opacity="0.5" d="M126.162 64.5795C126.642 64.5795 127.031 64.1904 127.031 63.7104C127.031 63.2304 126.642 62.8413 126.162 62.8413C125.682 62.8413 125.293 63.2304 125.293 63.7104C125.293 64.1904 125.682 64.5795 126.162 64.5795Z" fill="white"/>
<path opacity="0.5" d="M93.0504 72.8696C93.4358 72.8696 93.7482 72.5572 93.7482 72.1718C93.7482 71.7864 93.4358 71.4739 93.0504 71.4739C92.665 71.4739 92.3525 71.7864 92.3525 72.1718C92.3525 72.5572 92.665 72.8696 93.0504 72.8696Z" fill="white"/>
<path opacity="0.5" d="M75.1006 55.3718C75.6074 55.3718 76.0182 54.961 76.0182 54.4543C76.0182 53.9475 75.6074 53.5367 75.1006 53.5367C74.5939 53.5367 74.1831 53.9475 74.1831 54.4543C74.1831 54.961 74.5939 55.3718 75.1006 55.3718Z" fill="white"/>
<path opacity="0.5" d="M98.7786 104.741C99.4227 104.741 99.9449 104.219 99.9449 103.575C99.9449 102.93 99.4227 102.408 98.7786 102.408C98.1345 102.408 97.6123 102.93 97.6123 103.575C97.6123 104.219 98.1345 104.741 98.7786 104.741Z" fill="white"/>
<path opacity="0.5" d="M146.038 98.0403C146.887 98.0403 147.576 97.3518 147.576 96.5024C147.576 95.6531 146.887 94.9646 146.038 94.9646C145.189 94.9646 144.5 95.6531 144.5 96.5024C144.5 97.3518 145.189 98.0403 146.038 98.0403Z" fill="white"/>
<path opacity="0.5" d="M173.548 12.9617C173.744 12.9617 173.903 12.8026 173.903 12.6064C173.903 12.4101 173.744 12.251 173.548 12.251C173.351 12.251 173.192 12.4101 173.192 12.6064C173.192 12.8026 173.351 12.9617 173.548 12.9617Z" fill="white"/>
<path opacity="0.5" d="M149.349 16.9485C150.215 16.9485 150.916 16.2469 150.916 15.3816C150.916 14.5162 150.215 13.8146 149.349 13.8146C148.484 13.8146 147.782 14.5162 147.782 15.3816C147.782 16.2469 148.484 16.9485 149.349 16.9485Z" fill="white"/>
<path opacity="0.5" d="M103.615 9.92815C103.817 9.92815 103.98 9.7647 103.98 9.56307C103.98 9.36145 103.817 9.198 103.615 9.198C103.413 9.198 103.25 9.36145 103.25 9.56307C103.25 9.7647 103.413 9.92815 103.615 9.92815Z" fill="white"/>
<path opacity="0.5" d="M80.0983 17.7982C80.7995 17.7982 81.368 17.2298 81.368 16.5285C81.368 15.8273 80.7995 15.2589 80.0983 15.2589C79.3971 15.2589 78.8286 15.8273 78.8286 16.5285C78.8286 17.2298 79.3971 17.7982 80.0983 17.7982Z" fill="white"/>
<path opacity="0.5" d="M120.114 75.3799C120.7 75.3799 121.174 74.9054 121.174 74.3202C121.174 73.7349 120.7 73.2605 120.114 73.2605C119.529 73.2605 119.055 73.7349 119.055 74.3202C119.055 74.9054 119.529 75.3799 120.114 75.3799Z" fill="white"/>
<path opacity="0.5" d="M149.388 74.5722C149.988 74.5722 150.474 74.0862 150.474 73.4867C150.474 72.8871 149.988 72.4011 149.388 72.4011C148.789 72.4011 148.303 72.8871 148.303 73.4867C148.303 74.0862 148.789 74.5722 149.388 74.5722Z" fill="white"/>
<path opacity="0.5" d="M167.199 1.75753C167.684 1.75753 168.078 1.36409 168.078 0.878764C168.078 0.393436 167.684 0 167.199 0C166.714 0 166.32 0.393436 166.32 0.878764C166.32 1.36409 166.714 1.75753 167.199 1.75753Z" fill="white"/>
<path opacity="0.5" d="M134.355 13.3527C134.623 13.3527 134.84 13.1357 134.84 12.8681C134.84 12.6005 134.623 12.3835 134.355 12.3835C134.088 12.3835 133.871 12.6005 133.871 12.8681C133.871 13.1357 134.088 13.3527 134.355 13.3527Z" fill="white"/>
<path opacity="0.5" d="M317.216 210.367C317.437 210.367 317.617 210.188 317.617 209.966C317.617 209.745 317.437 209.566 317.216 209.566C316.995 209.566 316.815 209.745 316.815 209.966C316.815 210.188 316.995 210.367 317.216 210.367Z" fill="white"/>
<path opacity="0.5" d="M283.235 188.068C284.034 188.068 284.682 187.42 284.682 186.621C284.682 185.822 284.034 185.174 283.235 185.174C282.436 185.174 281.788 185.822 281.788 186.621C281.788 187.42 282.436 188.068 283.235 188.068Z" fill="white"/>
<path opacity="0.5" d="M283.496 180.618C284.183 180.618 284.74 180.061 284.74 179.374C284.74 178.687 284.183 178.131 283.496 178.131C282.809 178.131 282.252 178.687 282.252 179.374C282.252 180.061 282.809 180.618 283.496 180.618Z" fill="white"/>
<path opacity="0.5" d="M304.545 234.468C305.341 234.468 305.986 233.823 305.986 233.027C305.986 232.232 305.341 231.587 304.545 231.587C303.749 231.587 303.104 232.232 303.104 233.027C303.104 233.823 303.749 234.468 304.545 234.468Z" fill="white"/>
<path opacity="0.5" d="M286.785 125.544C286.978 125.544 287.134 125.388 287.134 125.195C287.134 125.002 286.978 124.846 286.785 124.846C286.593 124.846 286.437 125.002 286.437 125.195C286.437 125.388 286.593 125.544 286.785 125.544Z" fill="white"/>
<path opacity="0.5" d="M262.003 162.675C262.108 162.675 262.193 162.589 262.193 162.484C262.193 162.379 262.108 162.294 262.003 162.294C261.897 162.294 261.812 162.379 261.812 162.484C261.812 162.589 261.897 162.675 262.003 162.675Z" fill="white"/>
<path opacity="0.5" d="M286.462 149.584C286.776 149.584 287.031 149.329 287.031 149.015C287.031 148.701 286.776 148.446 286.462 148.446C286.148 148.446 285.894 148.701 285.894 149.015C285.894 149.329 286.148 149.584 286.462 149.584Z" fill="white"/>
<path opacity="0.5" d="M312.183 146.657C312.497 146.657 312.751 146.402 312.751 146.088C312.751 145.774 312.497 145.519 312.183 145.519C311.869 145.519 311.614 145.774 311.614 146.088C311.614 146.402 311.869 146.657 312.183 146.657Z" fill="white"/>
<path opacity="0.5" d="M278.722 65.7813C278.97 65.7813 279.171 65.5803 279.171 65.3323C279.171 65.0842 278.97 64.8832 278.722 64.8832C278.474 64.8832 278.272 65.0842 278.272 65.3323C278.272 65.5803 278.474 65.7813 278.722 65.7813Z" fill="white"/>
<path opacity="0.5" d="M253.08 68.3982C253.736 68.3982 254.268 67.8659 254.268 67.2092C254.268 66.5526 253.736 66.0203 253.08 66.0203C252.423 66.0203 251.891 66.5526 251.891 67.2092C251.891 67.8659 252.423 68.3982 253.08 68.3982Z" fill="white"/>
<path opacity="0.5" d="M252.982 135.746C253.443 135.746 253.816 135.373 253.816 134.913C253.816 134.452 253.443 134.079 252.982 134.079C252.522 134.079 252.149 134.452 252.149 134.913C252.149 135.373 252.522 135.746 252.982 135.746Z" fill="white"/>
<path opacity="0.5" d="M275.371 97.2423C275.946 97.2423 276.412 96.7766 276.412 96.202C276.412 95.6275 275.946 95.1617 275.371 95.1617C274.797 95.1617 274.331 95.6275 274.331 96.202C274.331 96.7766 274.797 97.2423 275.371 97.2423Z" fill="white"/>
</g>
<path d="M72.9158 303.752C73.0853 303.752 73.2227 303.614 73.2227 303.445C73.2227 303.275 73.0853 303.138 72.9158 303.138C72.7463 303.138 72.6089 303.275 72.6089 303.445C72.6089 303.614 72.7463 303.752 72.9158 303.752Z" fill="white"/>
<path d="M121.568 296.858C122.331 296.858 122.951 296.238 122.951 295.475C122.951 294.711 122.331 294.092 121.568 294.092C120.804 294.092 120.185 294.711 120.185 295.475C120.185 296.238 120.804 296.858 121.568 296.858Z" fill="white"/>
<path d="M160.382 304.169C160.949 304.169 161.409 303.709 161.409 303.141C161.409 302.574 160.949 302.114 160.382 302.114C159.814 302.114 159.354 302.574 159.354 303.141C159.354 303.709 159.814 304.169 160.382 304.169Z" fill="white"/>
<path d="M195.177 291.908C195.666 291.908 196.062 291.511 196.062 291.022C196.062 290.534 195.666 290.137 195.177 290.137C194.688 290.137 194.292 290.534 194.292 291.022C194.292 291.511 194.688 291.908 195.177 291.908Z" fill="white"/>
<path d="M235.556 259.591C236.05 259.591 236.45 259.19 236.45 258.696C236.45 258.201 236.05 257.801 235.556 257.801C235.061 257.801 234.661 258.201 234.661 258.696C234.661 259.19 235.061 259.591 235.556 259.591Z" fill="white"/>
<path d="M266.567 264.815C267.227 264.815 267.762 264.28 267.762 263.619C267.762 262.959 267.227 262.424 266.567 262.424C265.907 262.424 265.372 262.959 265.372 263.619C265.372 264.28 265.907 264.815 266.567 264.815Z" fill="white"/>
<path d="M297.973 230.023C298.662 230.023 299.22 229.465 299.22 228.776C299.22 228.087 298.662 227.529 297.973 227.529C297.284 227.529 296.726 228.087 296.726 228.776C296.726 229.465 297.284 230.023 297.973 230.023Z" fill="white"/>
<path d="M338.623 214.26C338.905 214.26 339.133 214.032 339.133 213.75C339.133 213.468 338.905 213.239 338.623 213.239C338.341 213.239 338.112 213.468 338.112 213.75C338.112 214.032 338.341 214.26 338.623 214.26Z" fill="white"/>
<path d="M371.23 194.12C372.069 194.12 372.749 193.44 372.749 192.601C372.749 191.763 372.069 191.083 371.23 191.083C370.392 191.083 369.712 191.763 369.712 192.601C369.712 193.44 370.392 194.12 371.23 194.12Z" fill="white"/>
<path d="M403.04 163.437C403.772 163.437 404.365 162.844 404.365 162.113C404.365 161.381 403.772 160.788 403.04 160.788C402.309 160.788 401.716 161.381 401.716 162.113C401.716 162.844 402.309 163.437 403.04 163.437Z" fill="white"/>
<path d="M362.004 108.272C362.159 108.272 362.285 108.146 362.285 107.991C362.285 107.836 362.159 107.71 362.004 107.71C361.848 107.71 361.723 107.836 361.723 107.991C361.723 108.146 361.848 108.272 362.004 108.272Z" fill="white"/>
<path d="M341.702 114.585C342.027 114.585 342.29 114.322 342.29 113.997C342.29 113.672 342.027 113.409 341.702 113.409C341.377 113.409 341.114 113.672 341.114 113.997C341.114 114.322 341.377 114.585 341.702 114.585Z" fill="white"/>
<path d="M307.052 124.058C307.239 124.058 307.391 123.906 307.391 123.718C307.391 123.531 307.239 123.379 307.052 123.379C306.864 123.379 306.712 123.531 306.712 123.718C306.712 123.906 306.864 124.058 307.052 124.058Z" fill="white"/>
<path d="M300.112 141.048C300.934 141.048 301.601 140.381 301.601 139.559C301.601 138.736 300.934 138.069 300.112 138.069C299.289 138.069 298.623 138.736 298.623 139.559C298.623 140.381 299.289 141.048 300.112 141.048Z" fill="white"/>
<path d="M266.602 150.12C267.227 150.12 267.733 149.614 267.733 148.989C267.733 148.365 267.227 147.858 266.602 147.858C265.978 147.858 265.472 148.365 265.472 148.989C265.472 149.614 265.978 150.12 266.602 150.12Z" fill="white"/>
<path d="M261.669 175.136C261.814 175.136 261.931 175.019 261.931 174.874C261.931 174.729 261.814 174.612 261.669 174.612C261.525 174.612 261.408 174.729 261.408 174.874C261.408 175.019 261.525 175.136 261.669 175.136Z" fill="white"/>
<path d="M222.807 157.945C223.092 157.945 223.324 157.713 223.324 157.428C223.324 157.142 223.092 156.911 222.807 156.911C222.521 156.911 222.29 157.142 222.29 157.428C222.29 157.713 222.521 157.945 222.807 157.945Z" fill="white"/>
<path d="M193.952 182.324C194.047 182.324 194.124 182.247 194.124 182.153C194.124 182.058 194.047 181.982 193.952 181.982C193.858 181.982 193.781 182.058 193.781 182.153C193.781 182.247 193.858 182.324 193.952 182.324Z" fill="white"/>
<path d="M163.215 165.392C163.676 165.392 164.049 165.019 164.049 164.558C164.049 164.098 163.676 163.725 163.215 163.725C162.755 163.725 162.382 164.098 162.382 164.558C162.382 165.019 162.755 165.392 163.215 165.392Z" fill="white"/>
<path d="M137.738 176.741C138.188 176.741 138.552 176.377 138.552 175.927C138.552 175.478 138.188 175.113 137.738 175.113C137.288 175.113 136.924 175.478 136.924 175.927C136.924 176.377 137.288 176.741 137.738 176.741Z" fill="white"/>
<path d="M110.067 172.393C110.796 172.393 111.388 171.801 111.388 171.071C111.388 170.342 110.796 169.75 110.067 169.75C109.337 169.75 108.745 170.342 108.745 171.071C108.745 171.801 109.337 172.393 110.067 172.393Z" fill="white"/>
<path d="M83.6713 199.673C83.9604 199.673 84.1947 199.439 84.1947 199.15C84.1947 198.861 83.9604 198.627 83.6713 198.627C83.3823 198.627 83.1479 198.861 83.1479 199.15C83.1479 199.439 83.3823 199.673 83.6713 199.673Z" fill="white"/>
<path d="M47.2156 184.857C47.8044 184.857 48.2817 184.38 48.2817 183.791C48.2817 183.202 47.8044 182.725 47.2156 182.725C46.6267 182.725 46.1494 183.202 46.1494 183.791C46.1494 184.38 46.6267 184.857 47.2156 184.857Z" fill="white"/>
<path d="M1.329 189.48C2.06056 189.48 2.65361 188.887 2.65361 188.156C2.65361 187.424 2.06056 186.831 1.329 186.831C0.597441 186.831 0.00439453 187.424 0.00439453 188.156C0.00439453 188.887 0.597441 189.48 1.329 189.48Z" fill="white"/>
<path d="M18.8172 234.924C19.5167 234.924 20.0837 234.357 20.0837 233.658C20.0837 232.958 19.5167 232.391 18.8172 232.391C18.1178 232.391 17.5508 232.958 17.5508 233.658C17.5508 234.357 18.1178 234.924 18.8172 234.924Z" fill="white"/>
<path d="M65.8501 245.679C66.0036 245.679 66.128 245.555 66.128 245.401C66.128 245.248 66.0036 245.123 65.8501 245.123C65.6967 245.123 65.5723 245.248 65.5723 245.401C65.5723 245.555 65.6967 245.679 65.8501 245.679Z" fill="white"/>
<path d="M113.614 239.408C114.042 239.408 114.389 239.061 114.389 238.633C114.389 238.205 114.042 237.857 113.614 237.857C113.186 237.857 112.838 238.205 112.838 238.633C112.838 239.061 113.186 239.408 113.614 239.408Z" fill="white"/>
<path d="M131.703 206.288C131.787 206.288 131.856 206.219 131.856 206.135C131.856 206.051 131.787 205.983 131.703 205.983C131.619 205.983 131.551 206.051 131.551 206.135C131.551 206.219 131.619 206.288 131.703 206.288Z" fill="white"/>
<path d="M176.717 210.451C177.077 210.451 177.37 210.159 177.37 209.798C177.37 209.438 177.077 209.146 176.717 209.146C176.357 209.146 176.064 209.438 176.064 209.798C176.064 210.159 176.357 210.451 176.717 210.451Z" fill="white"/>
<path d="M186.638 187.193C186.922 187.193 187.152 186.963 187.152 186.679C187.152 186.395 186.922 186.165 186.638 186.165C186.354 186.165 186.125 186.395 186.125 186.679C186.125 186.963 186.354 187.193 186.638 187.193Z" fill="white"/>
<path d="M211.376 167.763C211.849 167.763 212.232 167.38 212.232 166.907C212.232 166.434 211.849 166.051 211.376 166.051C210.903 166.051 210.52 166.434 210.52 166.907C210.52 167.38 210.903 167.763 211.376 167.763Z" fill="white"/>
<path d="M245.27 147.587C245.72 147.587 246.084 147.223 246.084 146.773C246.084 146.323 245.72 145.959 245.27 145.959C244.821 145.959 244.456 146.323 244.456 146.773C244.456 147.223 244.821 147.587 245.27 147.587Z" fill="white"/>
<path d="M255.867 130.748C256.052 130.748 256.203 130.598 256.203 130.412C256.203 130.227 256.052 130.076 255.867 130.076C255.681 130.076 255.531 130.227 255.531 130.412C255.531 130.598 255.681 130.748 255.867 130.748Z" fill="white"/>
<path d="M285.609 121.812C285.856 121.812 286.055 121.613 286.055 121.366C286.055 121.12 285.856 120.92 285.609 120.92C285.363 120.92 285.164 121.12 285.164 121.366C285.164 121.613 285.363 121.812 285.609 121.812Z" fill="white"/>
<path d="M319.383 98.9578C319.978 98.9578 320.459 98.4762 320.459 97.882C320.459 97.2878 319.978 96.8062 319.383 96.8062C318.789 96.8062 318.308 97.2878 318.308 97.882C318.308 98.4762 318.789 98.9578 319.383 98.9578Z" fill="white"/>
<path d="M336.652 82.3033C336.948 82.3033 337.188 82.0632 337.188 81.767C337.188 81.4708 336.948 81.2307 336.652 81.2307C336.355 81.2307 336.115 81.4708 336.115 81.767C336.115 82.0632 336.355 82.3033 336.652 82.3033Z" fill="white"/>
<path d="M313.672 24.2435C313.739 24.2435 313.794 24.1886 313.794 24.1208C313.794 24.053 313.739 23.998 313.672 23.998C313.604 23.998 313.549 24.053 313.549 24.1208C313.549 24.1886 313.604 24.2435 313.672 24.2435Z" fill="white"/>
<path d="M279.923 38.2682C280.349 38.2682 280.695 37.9225 280.695 37.496C280.695 37.0696 280.349 36.7239 279.923 36.7239C279.497 36.7239 279.151 37.0696 279.151 37.496C279.151 37.9225 279.497 38.2682 279.923 38.2682Z" fill="white"/>
<path d="M257.353 49.4661C257.792 49.4661 258.148 49.1102 258.148 48.6713C258.148 48.2324 257.792 47.8765 257.353 47.8765C256.914 47.8765 256.559 48.2324 256.559 48.6713C256.559 49.1102 256.914 49.4661 257.353 49.4661Z" fill="white"/>
<path d="M217.938 68.7342C218.764 68.7342 219.434 68.0645 219.434 67.2383C219.434 66.4122 218.764 65.7425 217.938 65.7425C217.112 65.7425 216.442 66.4122 216.442 67.2383C216.442 68.0645 217.112 68.7342 217.938 68.7342Z" fill="white"/>
<path d="M169.6 59.1356C170.194 59.1356 170.676 58.654 170.676 58.0598C170.676 57.4656 170.194 56.9839 169.6 56.9839C169.006 56.9839 168.524 57.4656 168.524 58.0598C168.524 58.654 169.006 59.1356 169.6 59.1356Z" fill="white"/>
<path d="M138.584 62.8348C138.966 62.8348 139.275 62.5253 139.275 62.1435C139.275 61.7616 138.966 61.4521 138.584 61.4521C138.202 61.4521 137.893 61.7616 137.893 62.1435C137.893 62.5253 138.202 62.8348 138.584 62.8348Z" fill="white"/>
<path d="M111.723 74.1489C111.995 74.1489 112.215 73.929 112.215 73.6578C112.215 73.3866 111.995 73.1667 111.723 73.1667C111.452 73.1667 111.232 73.3866 111.232 73.6578C111.232 73.929 111.452 74.1489 111.723 74.1489Z" fill="white"/>
<path d="M69.4331 80.3487C70.0844 80.3487 70.6124 79.8208 70.6124 79.1695C70.6124 78.5183 70.0844 77.9903 69.4331 77.9903C68.7819 77.9903 68.2539 78.5183 68.2539 79.1695C68.2539 79.8208 68.7819 80.3487 69.4331 80.3487Z" fill="white"/>
<path d="M44.0814 75.0762C44.4275 75.0762 44.7081 74.7956 44.7081 74.4494C44.7081 74.1032 44.4275 73.8226 44.0814 73.8226C43.7352 73.8226 43.4546 74.1032 43.4546 74.4494C43.4546 74.7956 43.7352 75.0762 44.0814 75.0762Z" fill="white"/>
</svg>
