<svg width="183" height="179" viewBox="0 0 183 179" fill="none" xmlns="http://www.w3.org/2000/svg">
<path d="M64.3848 0.513306H57.8242C56.6816 0.513306 55.7554 1.43956 55.7554 2.58216V2.59002C55.7554 3.73262 56.6816 4.65887 57.8242 4.65887H64.3848C65.5274 4.65887 66.4536 3.73262 66.4536 2.59002V2.58216C66.4536 1.43956 65.5274 0.513306 64.3848 0.513306Z" fill="#303030" fill-opacity="0.49"/>
<path d="M71.9914 33.67H59.2007C56.9112 33.67 55.0552 35.5261 55.0552 37.8156C55.0552 40.1051 56.9112 41.9612 59.2007 41.9612H71.9914C74.281 41.9612 76.137 40.1051 76.137 37.8156C76.137 35.5261 74.281 33.67 71.9914 33.67Z" fill="#303030" fill-opacity="0.49"/>
<path d="M95.9759 45.8942H89.5569C88.3535 45.8942 87.3779 46.8697 87.3779 48.0731C87.3779 49.2766 88.3535 50.2521 89.5569 50.2521H95.9759C97.1793 50.2521 98.1548 49.2766 98.1548 48.0731C98.1548 46.8697 97.1793 45.8942 95.9759 45.8942Z" fill="#303030" fill-opacity="0.49"/>
<path d="M148.075 45.8942H103.874C102.67 45.8942 101.695 46.8697 101.695 48.0731C101.695 49.2766 102.67 50.2521 103.874 50.2521H148.075C149.278 50.2521 150.254 49.2766 150.254 48.0731C150.254 46.8697 149.278 45.8942 148.075 45.8942Z" fill="#303030" fill-opacity="0.49"/>
<path d="M180.578 46.0988H155.784C154.641 46.0988 153.715 47.025 153.715 48.1676V48.1755C153.715 49.3181 154.641 50.2443 155.784 50.2443H180.578C181.721 50.2443 182.647 49.3181 182.647 48.1755V48.1676C182.647 47.025 181.721 46.0988 180.578 46.0988Z" fill="#303030" fill-opacity="0.49"/>
<path d="M156.153 75.1099H136.464C135.321 75.1099 134.395 76.0361 134.395 77.1787V77.1866C134.395 78.3292 135.321 79.2554 136.464 79.2554H156.153C157.296 79.2554 158.222 78.3292 158.222 77.1866V77.1787C158.222 76.0361 157.296 75.1099 156.153 75.1099Z" fill="#303030" fill-opacity="0.49"/>
<path d="M180.578 75.1099H163.784C162.641 75.1099 161.715 76.0361 161.715 77.1787V77.1866C161.715 78.3292 162.641 79.2554 163.784 79.2554H180.578C181.721 79.2554 182.647 78.3292 182.647 77.1866V77.1787C182.647 76.0361 181.721 75.1099 180.578 75.1099Z" fill="#303030" fill-opacity="0.49"/>
<path d="M83.9245 87.5466H65.2813C64.1387 87.5466 63.2124 88.4729 63.2124 89.6155V89.6233C63.2124 90.7659 64.1387 91.6922 65.2813 91.6922H83.9245C85.0671 91.6922 85.9934 90.7659 85.9934 89.6233V89.6155C85.9934 88.4729 85.0671 87.5466 83.9245 87.5466Z" fill="#303030" fill-opacity="0.49"/>
<path d="M111.835 87.5466H100.224C99.0815 87.5466 98.1553 88.4729 98.1553 89.6155V89.6233C98.1553 90.7659 99.0815 91.6922 100.224 91.6922H111.835C112.977 91.6922 113.904 90.7659 113.904 89.6233V89.6155C113.904 88.4729 112.977 87.5466 111.835 87.5466Z" fill="#303030" fill-opacity="0.49"/>
<path d="M161.998 91.6923H122.753C121.719 91.6923 120.881 92.5305 120.881 93.5645V93.5723C120.881 94.6063 121.719 95.4445 122.753 95.4445H161.998C163.032 95.4445 163.87 94.6063 163.87 93.5723V93.5645C163.87 92.5305 163.032 91.6923 161.998 91.6923Z" fill="#303030" fill-opacity="0.49"/>
<path d="M180.578 91.6923H169.117C167.975 91.6923 167.048 92.6185 167.048 93.7611V93.769C167.048 94.9116 167.975 95.8378 169.117 95.8378H180.578C181.721 95.8378 182.647 94.9116 182.647 93.769V93.7611C182.647 92.6185 181.721 91.6923 180.578 91.6923Z" fill="#303030" fill-opacity="0.49"/>
<path d="M84.0504 120.703H40.3292C39.2561 120.703 38.3862 121.573 38.3862 122.646C38.3862 123.719 39.2561 124.589 40.3292 124.589H84.0504C85.1235 124.589 85.9934 123.719 85.9934 122.646C85.9934 121.573 85.1235 120.703 84.0504 120.703Z" fill="#303030" fill-opacity="0.49"/>
<path d="M85.3093 174.58H2.90137C1.75878 174.58 0.83252 175.506 0.83252 176.649V176.657C0.83252 177.799 1.75878 178.726 2.90137 178.726H85.3093C86.4519 178.726 87.3781 177.799 87.3781 176.657V176.649C87.3781 175.506 86.4519 174.58 85.3093 174.58Z" fill="#303030" fill-opacity="0.49"/>
<path d="M182.648 3.17213V2.00005C182.648 1.60574 182.491 1.22758 182.212 0.948762C181.933 0.669944 181.555 0.513306 181.161 0.513306H72.7074C72.3158 0.51745 71.9417 0.675915 71.6663 0.954285C71.3909 1.23266 71.2364 1.60845 71.2364 2.00005V3.17213C71.2364 3.56644 71.393 3.9446 71.6719 4.22342C71.9507 4.50223 72.3288 4.65887 72.7231 4.65887H88.8334C89.2277 4.65887 89.6059 4.81551 89.8847 5.09433C90.1635 5.37315 90.3202 5.7513 90.3202 6.14561V7.3177C90.3119 7.70927 90.1495 8.08176 89.8681 8.35424C89.5868 8.62673 89.2093 8.77721 88.8177 8.77297H67.9325C67.5382 8.77297 67.1601 8.92961 66.8813 9.20843C66.6024 9.48725 66.4458 9.86541 66.4458 10.2597V11.4239C66.4458 11.819 66.6022 12.1979 66.8808 12.478C67.1594 12.7581 67.5375 12.9165 67.9325 12.9185H68.7742C69.1685 12.9185 69.5467 13.0752 69.8255 13.354C70.1043 13.6328 70.261 14.011 70.261 14.4053V15.5695C70.261 15.7647 70.2994 15.9581 70.3742 16.1385C70.4489 16.3188 70.5584 16.4827 70.6964 16.6208C70.8345 16.7588 70.9984 16.8684 71.1788 16.9431C71.3591 17.0178 71.5525 17.0562 71.7477 17.0562H94.6624C94.8583 17.0562 95.0523 17.095 95.2332 17.1702C95.4141 17.2454 95.5783 17.3556 95.7165 17.4945C95.8546 17.6334 95.964 17.7982 96.0382 17.9795C96.1125 18.1608 96.1502 18.3549 96.1491 18.5508V19.7859C96.1502 19.9814 96.1124 20.1752 96.0381 20.356C95.9637 20.5369 95.8543 20.7012 95.716 20.8395C95.5777 20.9777 95.4134 21.0872 95.2326 21.1616C95.0517 21.2359 94.8579 21.2736 94.6624 21.2726H78.2453C77.855 21.2683 77.4787 21.4177 77.1976 21.6885C76.9165 21.9593 76.7532 22.3298 76.7429 22.72V23.8921C76.7429 24.2864 76.8995 24.6646 77.1783 24.9434C77.4571 25.2222 77.8353 25.3788 78.2296 25.3788H87.1815C87.3781 25.3768 87.5731 25.4137 87.7553 25.4875C87.9375 25.5612 88.1032 25.6704 88.243 25.8087C88.3827 25.947 88.4936 26.1116 88.5693 26.293C88.645 26.4744 88.684 26.669 88.684 26.8656V28.0377C88.684 28.432 88.5273 28.8101 88.2485 29.089C87.9697 29.3678 87.5915 29.5244 87.1972 29.5244H83.8226C83.4283 29.5244 83.0501 29.681 82.7713 29.9599C82.4925 30.2387 82.3358 30.6168 82.3358 31.0111V32.1832C82.3358 32.5775 82.4925 32.9557 82.7713 33.2345C83.0501 33.5133 83.4283 33.67 83.8226 33.67H171.721C172.115 33.67 172.494 33.5133 172.772 33.2345C173.051 32.9557 173.208 32.5775 173.208 32.1832V31.0111C173.208 30.6168 173.365 30.2387 173.643 29.9599C173.922 29.681 174.3 29.5244 174.695 29.5244H181.161C181.555 29.5244 181.933 29.3678 182.212 29.089C182.491 28.8101 182.648 28.432 182.648 28.0377V22.72C182.648 22.5248 182.609 22.3314 182.534 22.1511C182.46 21.9707 182.35 21.8068 182.212 21.6687C182.074 21.5307 181.91 21.4212 181.73 21.3464C181.549 21.2717 181.356 21.2333 181.161 21.2333H162.431C162.038 21.2417 161.658 21.0942 161.373 20.823C161.089 20.5517 160.923 20.1788 160.913 19.7859V18.5823C160.913 18.1873 161.069 17.8083 161.348 17.5282C161.626 17.2482 162.005 17.0898 162.4 17.0877H178.132C178.527 17.0877 178.905 16.9311 179.184 16.6523C179.462 16.3734 179.619 15.9953 179.619 15.601V14.4367C179.618 14.2412 179.656 14.0474 179.73 13.8666C179.804 13.6857 179.914 13.5214 180.052 13.3831C180.19 13.2449 180.355 13.1354 180.536 13.0611C180.716 12.9867 180.91 12.949 181.106 12.95V12.95C181.501 12.9479 181.879 12.7895 182.157 12.5095C182.436 12.2294 182.592 11.8504 182.592 11.4554V10.2912C182.601 9.90082 182.456 9.52277 182.188 9.2387C181.92 8.95463 181.551 8.78734 181.161 8.77297H175.521C175.126 8.77298 174.747 8.61659 174.467 8.338C174.186 8.05941 174.028 7.68126 174.026 7.28623V6.14561C174.028 5.75058 174.186 5.37244 174.467 5.09385C174.747 4.81525 175.126 4.65887 175.521 4.65887H181.161C181.555 4.65887 181.933 4.50223 182.212 4.22342C182.491 3.9446 182.648 3.56644 182.648 3.17213V3.17213ZM108.877 17.0877H137.447C137.844 17.0877 138.224 17.2452 138.504 17.5255C138.785 17.8058 138.942 18.1859 138.942 18.5823V19.7859C138.942 19.9818 138.903 20.1757 138.828 20.3566C138.753 20.5375 138.643 20.7018 138.504 20.8399C138.365 20.9781 138.2 21.0874 138.019 21.1617C137.838 21.236 137.643 21.2736 137.447 21.2726H108.877C108.487 21.2664 108.116 21.1068 107.844 20.8284C107.571 20.55 107.419 20.1754 107.422 19.7859V18.5823C107.419 18.192 107.571 17.8166 107.843 17.5369C108.115 17.2573 108.487 17.096 108.877 17.0877Z" fill="#303030" fill-opacity="0.49"/>
<path d="M83.9561 70.9722H57.0926C55.9673 70.9722 55.0552 71.8843 55.0552 73.0096C55.0552 74.1348 55.9673 75.0469 57.0926 75.0469H83.9561C85.0814 75.0469 85.9935 74.1348 85.9935 73.0096C85.9935 71.8843 85.0814 70.9722 83.9561 70.9722Z" fill="#303030" fill-opacity="0.49"/>
<path d="M129.794 58.5355H59.437C58.2944 58.5355 57.3682 59.4618 57.3682 60.6044V60.6122C57.3682 61.7548 58.2944 62.6811 59.437 62.6811H129.794C130.936 62.6811 131.863 61.7548 131.863 60.6122V60.6044C131.863 59.4618 130.936 58.5355 129.794 58.5355Z" fill="#303030" fill-opacity="0.49"/>
<path d="M147.438 58.5355H140.492C139.349 58.5355 138.423 59.4618 138.423 60.6044V60.6122C138.423 61.7548 139.349 62.6811 140.492 62.6811H147.438C148.58 62.6811 149.507 61.7548 149.507 60.6122V60.6044C149.507 59.4618 148.58 58.5355 147.438 58.5355Z" fill="#303030" fill-opacity="0.49"/>
<path d="M172.783 58.5355H155.784C154.641 58.5355 153.715 59.4618 153.715 60.6044V60.6122C153.715 61.7548 154.641 62.6811 155.784 62.6811H172.783C173.925 62.6811 174.852 61.7548 174.852 60.6122V60.6044C174.852 59.4618 173.925 58.5355 172.783 58.5355Z" fill="#303030" fill-opacity="0.49"/>
</svg>
