<svg width="153" height="168" viewBox="0 0 153 168" fill="none" xmlns="http://www.w3.org/2000/svg">
<path d="M102.425 19.8857H100.111C98.7717 19.8857 97.686 20.9699 97.686 22.3073C97.686 23.6447 98.7717 24.7289 100.111 24.7289H102.425C103.764 24.7289 104.849 23.6447 104.849 22.3073C104.849 20.9699 103.764 19.8857 102.425 19.8857Z" fill="#303030" fill-opacity="0.49"/>
<path d="M108.653 2.93814C108.653 2.29503 108.398 1.67827 107.943 1.22352C107.488 0.768778 106.871 0.513306 106.228 0.513306L2.58157 0.513306C1.93846 0.513306 1.3217 0.768778 0.866955 1.22352C0.412211 1.67827 0.156738 2.29503 0.156738 2.93814H0.156738C0.158469 3.58011 0.414705 4.1952 0.869262 4.64853C1.32382 5.10186 1.93959 5.35643 2.58157 5.35643H10.2678C10.586 5.35643 10.901 5.4192 11.1948 5.54114C11.4886 5.66308 11.7555 5.84179 11.9801 6.06704C12.2048 6.2923 12.3828 6.55966 12.5039 6.85381C12.6251 7.14797 12.687 7.46314 12.6861 7.78126V7.78126C12.6861 8.42263 12.4313 9.03774 11.9778 9.49126C11.5243 9.94477 10.9092 10.1996 10.2678 10.1996H2.58157C1.93846 10.1996 1.3217 10.455 0.866955 10.9098C0.412211 11.3645 0.156738 11.9813 0.156738 12.6244H0.156738C0.158469 13.2664 0.414705 13.8814 0.869262 14.3348C1.32382 14.7881 1.93959 15.0427 2.58157 15.0427H15.1044C15.7475 15.0427 16.3643 15.2982 16.819 15.7529C17.2738 16.2076 17.5292 16.8244 17.5292 17.4675V17.4675C17.5275 18.1095 17.2713 18.7246 16.8167 19.1779C16.3622 19.6312 15.7464 19.8858 15.1044 19.8858H2.58157C1.93846 19.8858 1.3217 20.1413 0.866955 20.596C0.412211 21.0508 0.156738 21.6675 0.156738 22.3106H0.156738C0.158469 22.9526 0.414705 23.5677 0.869262 24.021C1.32382 24.4744 1.93959 24.7289 2.58157 24.7289H12.3855C12.7036 24.7289 13.0186 24.7917 13.3124 24.9136C13.6062 25.0356 13.8731 25.2143 14.0978 25.4395C14.3224 25.6648 14.5004 25.9322 14.6216 26.2263C14.7427 26.5205 14.8046 26.8356 14.8038 27.1538V27.1538C14.8046 27.4716 14.7427 27.7864 14.6214 28.0802C14.5002 28.374 14.3221 28.641 14.0974 28.8657C13.8727 29.0904 13.6057 29.2685 13.3119 29.3897C13.0181 29.511 12.7033 29.5729 12.3855 29.5721H8.20247C7.5605 29.5738 6.94541 29.83 6.49208 30.2846C6.03875 30.7391 5.78417 31.3549 5.78418 31.9969V31.9969C5.78418 32.3145 5.84673 32.6289 5.96826 32.9223C6.08979 33.2157 6.26792 33.4823 6.49248 33.7069C6.71704 33.9314 6.98363 34.1096 7.27703 34.2311C7.57043 34.3526 7.8849 34.4152 8.20247 34.4152H98.8493C99.1674 34.416 99.4826 34.3541 99.7768 34.233C100.071 34.1118 100.338 33.9338 100.564 33.7092C100.789 33.4846 100.968 33.2177 101.089 32.9238C101.211 32.63 101.274 32.315 101.274 31.9969V31.9969C101.274 31.6785 101.211 31.3631 101.09 31.069C100.968 30.7748 100.789 30.5074 100.564 30.2823C100.339 30.0571 100.071 29.8785 99.7773 29.7566C99.4831 29.6348 99.1678 29.5721 98.8493 29.5721H83.9082C83.5901 29.5729 83.2749 29.511 82.9807 29.3899C82.6866 29.2687 82.4192 29.0907 82.194 28.8661C81.9687 28.6414 81.79 28.3745 81.6681 28.0807C81.5461 27.7869 81.4833 27.4719 81.4833 27.1538V27.1538C81.4833 26.5107 81.7388 25.8939 82.1936 25.4392C82.6483 24.9844 83.2651 24.7289 83.9082 24.7289H90.6598C91.3012 24.7289 91.9163 24.4742 92.3698 24.0206C92.8233 23.5671 93.0781 22.952 93.0781 22.3106V22.3106C93.0789 21.9925 93.017 21.6773 92.8959 21.3832C92.7747 21.089 92.5968 20.8217 92.3721 20.5964C92.1475 20.3712 91.8806 20.1925 91.5867 20.0705C91.2929 19.9486 90.9779 19.8858 90.6598 19.8858H90.2872C89.6453 19.8858 89.0295 19.6312 88.5749 19.1779C88.1204 18.7246 87.8641 18.1095 87.8624 17.4675C87.8624 16.8244 88.1179 16.2076 88.5726 15.7529C89.0274 15.2982 89.6441 15.0427 90.2872 15.0427H99.0127C99.6547 15.0427 100.27 14.7881 100.725 14.3348C101.18 13.8814 101.436 13.2664 101.438 12.6244V12.6244C101.438 11.9813 101.182 11.3645 100.727 10.9098C100.273 10.455 99.6558 10.1996 99.0127 10.1996H85.4441C84.8021 10.1996 84.1864 9.94499 83.7318 9.49165C83.2773 9.03832 83.021 8.42324 83.0193 7.78126C83.0193 7.13816 83.2748 6.52139 83.7295 6.06665C84.1842 5.6119 84.801 5.35643 85.4441 5.35643H106.228C106.87 5.35643 107.486 5.10186 107.941 4.64853C108.395 4.1952 108.651 3.58011 108.653 2.93814V2.93814ZM49.6926 19.8858H28.8364C28.1944 19.8858 27.5787 19.6312 27.1241 19.1779C26.6695 18.7246 26.4133 18.1095 26.4116 17.4675V17.4675C26.4116 16.8244 26.6671 16.2076 27.1218 15.7529C27.5765 15.2982 28.1933 15.0427 28.8364 15.0427H49.6926C50.3357 15.0427 50.9524 15.2982 51.4072 15.7529C51.8619 16.2076 52.1174 16.8244 52.1174 17.4675V17.4675C52.1157 18.1095 51.8594 18.7246 51.4049 19.1779C50.9503 19.6312 50.3345 19.8858 49.6926 19.8858V19.8858ZM80.601 19.8858H73.4638C73.1462 19.8858 72.8317 19.8233 72.5383 19.7017C72.2449 19.5802 71.9783 19.4021 71.7538 19.1775C71.5292 18.9529 71.3511 18.6864 71.2295 18.393C71.108 18.0996 71.0455 17.7851 71.0455 17.4675V17.4675C71.0455 16.8255 71.3 16.2098 71.7534 15.7552C72.2067 15.3007 72.8218 15.0444 73.4638 15.0427H80.601C81.243 15.0444 81.8581 15.3007 82.3114 15.7552C82.7647 16.2098 83.0193 16.8255 83.0193 17.4675V17.4675C83.0193 18.1089 82.7645 18.724 82.311 19.1775C81.8575 19.631 81.2424 19.8858 80.601 19.8858V19.8858Z" fill="#303030" fill-opacity="0.49"/>
<path d="M17.509 36.84H12.5547C11.2155 36.84 10.1299 37.9241 10.1299 39.2615C10.1299 40.5989 11.2155 41.6831 12.5547 41.6831H17.509C18.8481 41.6831 19.9338 40.5989 19.9338 39.2615C19.9338 37.9241 18.8481 36.84 17.509 36.84Z" fill="#303030" fill-opacity="0.49"/>
<path d="M59.6662 36.84H25.5552C24.216 36.84 23.1304 37.9241 23.1304 39.2615C23.1304 40.5989 24.216 41.6831 25.5552 41.6831H59.6662C61.0054 41.6831 62.0911 40.5989 62.0911 39.2615C62.0911 37.9241 61.0054 36.84 59.6662 36.84Z" fill="#303030" fill-opacity="0.49"/>
<path d="M88.6925 36.84H69.503C68.1638 36.84 67.0781 37.9241 67.0781 39.2615C67.0781 40.5989 68.1638 41.6831 69.503 41.6831H88.6925C90.0317 41.6831 91.1173 40.5989 91.1173 39.2615C91.1173 37.9241 90.0317 36.84 88.6925 36.84Z" fill="#303030" fill-opacity="0.49"/>
<path d="M46.6207 48.9512H2.58157C1.24237 48.9512 0.156738 50.0353 0.156738 51.3727C0.156738 52.7101 1.24237 53.7943 2.58157 53.7943H46.6207C47.9599 53.7943 49.0455 52.7101 49.0455 51.3727C49.0455 50.0353 47.9599 48.9512 46.6207 48.9512Z" fill="#303030" fill-opacity="0.49"/>
<path d="M58.9014 48.9512H53.9014C52.5622 48.9512 51.4766 50.0353 51.4766 51.3727C51.4766 52.7101 52.5622 53.7943 53.9014 53.7943H58.9014C60.2406 53.7943 61.3262 52.7101 61.3262 51.3727C61.3262 50.0353 60.2406 48.9512 58.9014 48.9512Z" fill="#303030" fill-opacity="0.49"/>
<path d="M91.5094 48.9512H87.1499C85.8107 48.9512 84.7251 50.0353 84.7251 51.3727C84.7251 52.7101 85.8107 53.7943 87.1499 53.7943H91.5094C92.8486 53.7943 93.9342 52.7101 93.9342 51.3727C93.9342 50.0353 92.8486 48.9512 91.5094 48.9512Z" fill="#303030" fill-opacity="0.49"/>
<path d="M80.8753 48.9512H66.5812C65.9134 48.9512 65.3721 49.4925 65.3721 50.1603V50.1669C65.3721 50.8346 65.9134 51.376 66.5812 51.376H80.8753C81.5431 51.376 82.0844 50.8346 82.0844 50.1669V50.1603C82.0844 49.4925 81.5431 48.9512 80.8753 48.9512Z" fill="#303030" fill-opacity="0.49"/>
<path d="M8.45084 58.6373H2.58157C1.24237 58.6373 0.156738 59.7215 0.156738 61.0589C0.156738 62.3963 1.24237 63.4805 2.58157 63.4805H8.45084C9.79003 63.4805 10.8757 62.3963 10.8757 61.0589C10.8757 59.7215 9.79003 58.6373 8.45084 58.6373Z" fill="#303030" fill-opacity="0.49"/>
<path d="M7.23515 70.7485H2.58157C1.24237 70.7485 0.156738 71.8327 0.156738 73.1701C0.156738 74.5075 1.24237 75.5917 2.58157 75.5917H7.23515C8.57435 75.5917 9.65998 74.5075 9.65998 73.1701C9.65998 71.8327 8.57435 70.7485 7.23515 70.7485Z" fill="#303030" fill-opacity="0.49"/>
<path d="M29.745 70.7485H21.9346C20.5954 70.7485 19.5098 71.8327 19.5098 73.1701C19.5098 74.5075 20.5954 75.5917 21.9346 75.5917H29.745C31.0842 75.5917 32.1699 74.5075 32.1699 73.1701C32.1699 71.8327 31.0842 70.7485 29.745 70.7485Z" fill="#303030" fill-opacity="0.49"/>
<path d="M41.2542 63.4806H39.2608C37.9216 63.4806 36.8359 64.5648 36.8359 65.9022C36.8359 67.2395 37.9216 68.3237 39.2608 68.3237H41.2542C42.5934 68.3237 43.6791 67.2395 43.6791 65.9022C43.6791 64.5648 42.5934 63.4806 41.2542 63.4806Z" fill="#303030" fill-opacity="0.49"/>
<path d="M65.9272 63.4806H51.4698C50.1306 63.4806 49.0449 64.5648 49.0449 65.9022C49.0449 67.2395 50.1306 68.3237 51.4698 68.3237H65.9272C67.2664 68.3237 68.3521 67.2395 68.3521 65.9022C68.3521 64.5648 67.2664 63.4806 65.9272 63.4806Z" fill="#303030" fill-opacity="0.49"/>
<path d="M98.7969 63.4806H73.6597C72.3205 63.4806 71.2349 64.5648 71.2349 65.9022C71.2349 67.2395 72.3205 68.3237 73.6597 68.3237H98.7969C100.136 68.3237 101.222 67.2395 101.222 65.9022C101.222 64.5648 100.136 63.4806 98.7969 63.4806Z" fill="#303030" fill-opacity="0.49"/>
<path d="M71.9406 78.01H36.7642C35.425 78.01 34.3394 79.0942 34.3394 80.4316C34.3394 81.769 35.425 82.8531 36.7642 82.8531H71.9406C73.2798 82.8531 74.3654 81.769 74.3654 80.4316C74.3654 79.0942 73.2798 78.01 71.9406 78.01Z" fill="#303030" fill-opacity="0.49"/>
<path d="M94.8361 78.01H79.4571C78.1179 78.01 77.0322 79.0942 77.0322 80.4316C77.0322 81.769 78.1179 82.8531 79.4571 82.8531H94.8361C96.1753 82.8531 97.2609 81.769 97.2609 80.4316C97.2609 79.0942 96.1753 78.01 94.8361 78.01Z" fill="#303030" fill-opacity="0.49"/>
<path d="M146.326 90.121H88.6533C87.3141 90.121 86.2285 91.2051 86.2285 92.5425C86.2285 93.8799 87.3141 94.9641 88.6533 94.9641H146.326C147.666 94.9641 148.751 93.8799 148.751 92.5425C148.751 91.2051 147.666 90.121 146.326 90.121Z" fill="#303030" fill-opacity="0.49"/>
<path d="M106.228 116.761H56.7774C55.4382 116.761 54.3525 117.846 54.3525 119.183C54.3525 120.52 55.4382 121.605 56.7774 121.605H106.228C107.567 121.605 108.653 120.52 108.653 119.183C108.653 117.846 107.567 116.761 106.228 116.761Z" fill="#303030" fill-opacity="0.49"/>
<path d="M149.817 116.761H143.542C142.203 116.761 141.117 117.846 141.117 119.183C141.117 120.52 142.203 121.605 143.542 121.605H149.817C151.156 121.605 152.241 120.52 152.241 119.183C152.241 117.846 151.156 116.761 149.817 116.761Z" fill="#303030" fill-opacity="0.49"/>
<path d="M136.843 132.01H128.647C127.697 132.01 126.928 132.779 126.928 133.729V133.735C126.928 134.685 127.697 135.454 128.647 135.454H136.843C137.792 135.454 138.562 134.685 138.562 133.735V133.729C138.562 132.779 137.792 132.01 136.843 132.01Z" fill="#303030" fill-opacity="0.49"/>
<path d="M125.392 163.977H110.189C109.341 163.977 108.653 164.665 108.653 165.513C108.653 166.361 109.341 167.049 110.189 167.049H125.392C126.24 167.049 126.928 166.361 126.928 165.513C126.928 164.665 126.24 163.977 125.392 163.977Z" fill="#303030" fill-opacity="0.49"/>
</svg>
